<?xml version="1.0" encoding="utf-8"?>
<!-- Generator: Adobe Illustrator 22.0.0, SVG Export Plug-In . SVG Version: 6.00 Build 0)  -->
<svg version="1.1" xmlns="http://www.w3.org/2000/svg" xmlns:xlink="http://www.w3.org/1999/xlink" x="0px" y="0px"
	 viewBox="0 0 841.9 595.3" style="enable-background:new 0 0 841.9 595.3;" xml:space="preserve">
<style type="text/css">
	.st0{fill:none;stroke:#000000;stroke-width:0.5;stroke-dasharray:3,2;}
	.st1{fill:#EDEDED;stroke:#000000;stroke-linecap:round;stroke-miterlimit:10;}
	.st2{fill:#EDEDED;}
</style>
<g id="Guías">
</g>
<g id="Marcas_de_recorte">
	<g>
		<line class="st0" x1="561.4" y1="-10.2" x2="561.4" y2="-37.4"/>
		<line class="st0" x1="280.5" y1="-9.9" x2="280.5" y2="-37.1"/>
		<line class="st0" x1="561.3" y1="631.9" x2="561.3" y2="604.7"/>
		<line class="st0" x1="282" y1="632.1" x2="282" y2="604.9"/>
	</g>
	<g>
		<line class="st0" x1="1465.7" y1="-9.7" x2="1465.7" y2="-36.9"/>
		<line class="st0" x1="1185.1" y1="-9.5" x2="1185.1" y2="-36.7"/>
		<line class="st0" x1="1465.7" y1="631.9" x2="1465.7" y2="604.7"/>
		<line class="st0" x1="1185.1" y1="632.1" x2="1185.1" y2="604.9"/>
	</g>
	<circle class="st1" cx="416.1" cy="292.3" r="116.4"/>
	<g>
		<g>
			<path class="st2" d="M353.6,315.2c6.1,3.8,12.4,7.1,19,10c3,1.3,6.4,0.9,8.2-2.2c1.5-2.6,0.8-6.9-2.2-8.2
				c-6.5-2.9-12.9-6.3-19-10C353,300.7,347,311.1,353.6,315.2L353.6,315.2z"/>
		</g>
	</g>
	<g>
		<g>
			<path class="st2" d="M420,306.3c3.9-18.4,1.8-36.9-6-54.1c-3.2-7-13.5-0.9-10.4,6.1c6.3,14,7.9,29.8,4.8,44.8
				C406.8,310.6,418.3,313.8,420,306.3L420,306.3z"/>
		</g>
	</g>
	<g>
		<g>
			<path class="st2" d="M399.8,248.5c4.6,36.1,9.2,72.1,13.8,108.2c1,7.6,13,7.7,12,0c-4.6-36.1-9.2-72.1-13.8-108.2
				C410.9,240.9,398.9,240.8,399.8,248.5L399.8,248.5z"/>
		</g>
	</g>
	<g>
		<g>
			<path class="st2" d="M414.7,326.4c-8.3-19.5-13.3-40.4-15.1-61.5c-0.6-7.6-12.6-7.7-12,0c1.9,23.4,7.6,46,16.7,67.6
				c1.3,3,5.7,3.6,8.2,2.2C415.7,332.9,416,329.4,414.7,326.4L414.7,326.4z"/>
		</g>
	</g>
	<g>
		<g>
			<path class="st2" d="M404.3,277.4c6,31.6,13.1,63,21.3,94c0.9-2.3,1.8-4.5,2.8-6.8c1.3-0.1,1.2-0.4-0.3-0.9
				c-0.9-0.6-1.8-1.3-2.6-2c-1.6-1.2-3.1-2.5-4.6-3.7c-3.2-2.7-6.4-5.5-9.5-8.3c-5.8-5.3-11.3-11-16.6-16.8
				c-10.9-12.2-20.5-25.6-28.8-39.7c-3.9-6.7-14.3-0.6-10.4,6.1c9.8,16.7,21.4,32.4,34.6,46.5c6.6,7,13.5,13.6,20.8,19.7
				c6.5,5.5,14.2,13.9,23.3,9.5c2.4-1.1,3.4-4.4,2.8-6.8c-8.2-31.1-15.3-62.5-21.3-94C414.5,266.7,402.9,269.9,404.3,277.4
				L404.3,277.4z"/>
		</g>
	</g>
	<g>
		<g>
			<path class="st2" d="M276.5,203.2c-38.4,13.7-68.6,45.7-79.7,85c-2.1,7.4,9.5,10.6,11.6,3.2c9.9-35.1,37-64.3,71.3-76.6
				C286.9,212.2,283.8,200.6,276.5,203.2L276.5,203.2z"/>
		</g>
	</g>
</g>
</svg>
